<?xml version="1.0" standalone="no"?>
<!DOCTYPE svg PUBLIC "-//W3C//DTD SVG 20010904//EN"
 "http://www.w3.org/TR/2001/REC-SVG-20010904/DTD/svg10.dtd">
<svg version="1.0" xmlns="http://www.w3.org/2000/svg"
 width="1200.000000pt" height="1200.000000pt" viewBox="0 0 1200.000000 1200.000000"
 preserveAspectRatio="xMidYMid meet">
<metadata>
Created by potrace 1.11, written by Peter Selinger 2001-2013
</metadata>
<g transform="translate(0.000000,1200.000000) scale(0.100000,-0.100000)"
fill="#000000" stroke="none">
<path d="M0 6000 l0 -6000 6000 0 6000 0 0 6000 0 6000 -6000 0 -6000 0 0
-6000z m6410 4280 c577 -35 1031 -123 1385 -267 486 -197 955 -571 1317 -1049
569 -753 849 -1794 825 -3069 -18 -909 -149 -1585 -428 -2198 -286 -630 -754
-1167 -1308 -1501 -355 -215 -797 -365 -1266 -431 -419 -59 -722 -67 -2220
-62 -1359 5 -1329 4 -1524 58 -213 59 -381 190 -470 365 -37 73 -74 209 -98
364 -17 109 -18 287 -18 3550 l0 3435 23 103 c93 421 315 631 732 691 41 6 86
13 100 15 61 9 2798 5 2950 -4z"/>
<path d="M4340 6000 l0 -2911 938 4 c964 4 1059 8 1252 47 377 77 637 210 877
449 306 304 508 687 633 1195 106 434 148 914 129 1494 -22 684 -128 1191
-328 1567 -166 312 -403 580 -654 738 -193 123 -431 202 -791 262 -332 56
-380 58 -1248 62 l-808 4 0 -2911z"/>
</g>
</svg>
